<svg width="512" height="512" viewBox="0 0 512 512" fill="none" xmlns="http://www.w3.org/2000/svg">
  <!-- Main building structures with gradient -->
  <defs>
    <linearGradient id="building1" x1="0%" y1="0%" x2="100%" y2="100%">
      <stop offset="0%" style="stop-color:#E57373;stop-opacity:1" />
      <stop offset="100%" style="stop-color:#B71C1C;stop-opacity:1" />
    </linearGradient>
    <linearGradient id="building2" x1="0%" y1="0%" x2="100%" y2="100%">
      <stop offset="0%" style="stop-color:#F8BBD9;stop-opacity:1" />
      <stop offset="100%" style="stop-color:#E91E63;stop-opacity:1" />
    </linearGradient>
    <linearGradient id="building3" x1="0%" y1="0%" x2="100%" y2="100%">
      <stop offset="0%" style="stop-color:#EF5350;stop-opacity:1" />
      <stop offset="100%" style="stop-color:#C62828;stop-opacity:1" />
    </linearGradient>
    <linearGradient id="connector" x1="0%" y1="0%" x2="100%" y2="100%">
      <stop offset="0%" style="stop-color:#FFFFFF;stop-opacity:1" />
      <stop offset="100%" style="stop-color:#F5F5F5;stop-opacity:1" />
    </linearGradient>
  </defs>
  
  <!-- Left building -->
  <polygon points="50,100 150,50 150,400 50,450" fill="url(#building1)" />
  <polygon points="50,100 150,50 200,100 100,150" fill="url(#building1)" opacity="0.8" />
  
  <!-- Windows for left building -->
  <rect x="70" y="120" width="15" height="15" fill="white" />
  <rect x="90" y="120" width="15" height="15" fill="white" />
  <rect x="70" y="140" width="15" height="15" fill="white" />
  <rect x="90" y="140" width="15" height="15" fill="white" />
  
  <!-- Center building -->
  <polygon points="180,80 280,30 280,420 180,470" fill="url(#building2)" />
  <polygon points="180,80 280,30 330,80 230,130" fill="url(#building2)" opacity="0.8" />
  
  <!-- Windows for center building -->
  <rect x="200" y="60" width="15" height="15" fill="white" />
  <rect x="220" y="60" width="15" height="15" fill="white" />
  <rect x="200" y="80" width="15" height="15" fill="white" />
  <rect x="220" y="80" width="15" height="15" fill="white" />
  
  <!-- Right building -->
  <polygon points="350,90 450,40 450,410 350,460" fill="url(#building3)" />
  <polygon points="350,90 450,40 500,90 400,140" fill="url(#building3)" opacity="0.8" />
  
  <!-- Windows for right building -->
  <rect x="370" y="110" width="15" height="15" fill="white" />
  <rect x="390" y="110" width="15" height="15" fill="white" />
  <rect x="410" y="110" width="15" height="15" fill="white" />
  <rect x="430" y="110" width="15" height="15" fill="white" />
  <rect x="370" y="130" width="15" height="15" fill="white" />
  <rect x="390" y="130" width="15" height="15" fill="white" />
  
  <!-- Connecting pathways/bridges -->
  <path d="M150,200 Q200,180 250,200 Q300,220 350,200" stroke="url(#connector)" stroke-width="20" fill="none" />
  <path d="M150,250 Q200,230 250,250 Q300,270 350,250" stroke="url(#connector)" stroke-width="20" fill="none" />
  
  <!-- Central connecting element -->
  <polygon points="200,180 300,180 320,200 320,280 300,300 200,300 180,280 180,200" fill="url(#connector)" />
  <polygon points="200,180 300,180 300,200 200,200" fill="url(#connector)" opacity="0.8" />
  
  <!-- Door/entrance -->
  <rect x="230" y="220" width="20" height="40" rx="10" fill="#B71C1C" />
  
  <!-- Additional architectural details -->
  <polygon points="100,380 130,360 130,450 100,470" fill="url(#building1)" opacity="0.6" />
  <polygon points="230,400 260,380 260,470 230,490" fill="url(#building2)" opacity="0.6" />
  <polygon points="380,390 410,370 410,460 380,480" fill="url(#building3)" opacity="0.6" />
</svg>
