<svg width="1200" height="630" viewBox="0 0 1200 630" fill="none" xmlns="http://www.w3.org/2000/svg">
  <!-- Background -->
  <rect width="1200" height="630" fill="#FFFFFF"/>
  
  <!-- Background pattern -->
  <defs>
    <pattern id="grid" width="40" height="40" patternUnits="userSpaceOnUse">
      <path d="M 40 0 L 0 0 0 40" fill="none" stroke="#F3F4F6" stroke-width="1"/>
    </pattern>
    <linearGradient id="building1" x1="0%" y1="0%" x2="100%" y2="100%">
      <stop offset="0%" style="stop-color:#E57373;stop-opacity:1" />
      <stop offset="100%" style="stop-color:#B71C1C;stop-opacity:1" />
    </linearGradient>
    <linearGradient id="building2" x1="0%" y1="0%" x2="100%" y2="100%">
      <stop offset="0%" style="stop-color:#F8BBD9;stop-opacity:1" />
      <stop offset="100%" style="stop-color:#E91E63;stop-opacity:1" />
    </linearGradient>
    <linearGradient id="building3" x1="0%" y1="0%" x2="100%" y2="100%">
      <stop offset="0%" style="stop-color:#EF5350;stop-opacity:1" />
      <stop offset="100%" style="stop-color:#C62828;stop-opacity:1" />
    </linearGradient>
  </defs>
  
  <rect width="1200" height="630" fill="url(#grid)"/>
  
  <!-- Logo centered and scaled -->
  <g transform="translate(400, 150) scale(3)">
    <rect x="4" y="16" width="16" height="40" fill="url(#building1)" rx="2" />
    <rect x="24" y="8" width="16" height="48" fill="url(#building2)" rx="2" />
    <rect x="44" y="12" width="16" height="44" fill="url(#building3)" rx="2" />
    
    <rect x="7" y="20" width="3" height="3" fill="white" />
    <rect x="13" y="20" width="3" height="3" fill="white" />
    <rect x="7" y="26" width="3" height="3" fill="white" />
    <rect x="13" y="26" width="3" height="3" fill="white" />
    
    <rect x="27" y="14" width="3" height="3" fill="white" />
    <rect x="33" y="14" width="3" height="3" fill="white" />
    <rect x="27" y="20" width="3" height="3" fill="white" />
    <rect x="33" y="20" width="3" height="3" fill="white" />
    
    <rect x="47" y="18" width="3" height="3" fill="white" />
    <rect x="53" y="18" width="3" height="3" fill="white" />
    <rect x="47" y="24" width="3" height="3" fill="white" />
    <rect x="53" y="24" width="3" height="3" fill="white" />
    
    <path d="M20,32 Q32,28 44,32" stroke="white" stroke-width="3" fill="none" />
    <circle cx="32" cy="32" r="4" fill="white" />
  </g>
  
  <!-- Title -->
  <text x="600" y="420" text-anchor="middle" fill="#1F2937" font-family="Arial, sans-serif" font-size="48" font-weight="bold">
    FranchiseHub
  </text>
  
  <!-- Subtitle -->
  <text x="600" y="470" text-anchor="middle" fill="#6B7280" font-family="Arial, sans-serif" font-size="24">
    Complete Franchise Management System
  </text>
  
  <!-- Features -->
  <text x="600" y="520" text-anchor="middle" fill="#9CA3AF" font-family="Arial, sans-serif" font-size="18">
    Order Management • Analytics • Real-time Notifications • Multi-brand Support
  </text>
  
  <!-- URL -->
  <text x="600" y="570" text-anchor="middle" fill="#E57373" font-family="Arial, sans-serif" font-size="20" font-weight="600">
    franchising-management-system-tg5m.vercel.app
  </text>
</svg>
